<?xml version="1.0" encoding="UTF-8" standalone="no"?>
<svg
   xmlns:dc="http://purl.org/dc/elements/1.1/"
   xmlns:cc="http://creativecommons.org/ns#"
   xmlns:rdf="http://www.w3.org/1999/02/22-rdf-syntax-ns#"
   xmlns:svg="http://www.w3.org/2000/svg"
   xmlns="http://www.w3.org/2000/svg"
   xmlns:xlink="http://www.w3.org/1999/xlink"
   xmlns:sodipodi="http://sodipodi.sourceforge.net/DTD/sodipodi-0.dtd"
   xmlns:inkscape="http://www.inkscape.org/namespaces/inkscape"
   width="210mm"
   height="297mm"
   viewBox="0 0 210 297"
   version="1.1"
   id="svg8"
   inkscape:version="1.0.2 (e86c870879, 2021-01-15, custom)"
   sodipodi:docname="lines.svg">
  <defs
     id="defs2">
    <linearGradient
       inkscape:collect="always"
       id="linearGradient938">
      <stop
         style="stop-color:#000000;stop-opacity:1;"
         offset="0"
         id="stop934" />
      <stop
         style="stop-color:#00ffff;stop-opacity:1"
         offset="1"
         id="stop936" />
    </linearGradient>
    <linearGradient
       inkscape:collect="always"
       xlink:href="#linearGradient938"
       id="linearGradient940"
       x1="-95.25"
       y1="377.97617"
       x2="492.125"
       y2="-127.75595"
       gradientUnits="userSpaceOnUse"
       gradientTransform="translate(-101.29762,-71.059527)" />
  </defs>
  <sodipodi:namedview
     id="base"
     pagecolor="#ffffff"
     bordercolor="#666666"
     borderopacity="1.0"
     inkscape:pageopacity="0.0"
     inkscape:pageshadow="2"
     inkscape:zoom="0.175"
     inkscape:cx="-80.809165"
     inkscape:cy="-525.65625"
     inkscape:document-units="mm"
     inkscape:current-layer="layer1"
     inkscape:document-rotation="0"
     showgrid="false"
     inkscape:window-width="1920"
     inkscape:window-height="1137"
     inkscape:window-x="1912"
     inkscape:window-y="-8"
     inkscape:window-maximized="1" />
  <metadata
     id="metadata5">
    <rdf:RDF>
      <cc:Work
         rdf:about="">
        <dc:format>image/svg+xml</dc:format>
        <dc:type
           rdf:resource="http://purl.org/dc/dcmitype/StillImage" />
        <dc:title></dc:title>
      </cc:Work>
    </rdf:RDF>
  </metadata>
  <g
     inkscape:label="Layer 1"
     inkscape:groupmode="layer"
     id="layer1">
    <rect
       style="fill:#000000;stroke-width:0.264583"
       id="rect837"
       width="508"
       height="522.3631"
       x="-243.41669"
       y="-154.21429" />
    <path
       style="fill:#ffffff;stroke-width:0.264583"
       id="path839"
       d="m -177.61609,297.94997 c 11.51899,-1.89545 23.07528,-3.7814 34.34016,-6.90737 3.525,-0.97816 6.99361,-2.14924 10.49041,-3.22387 3.42475,-1.28003 6.91893,-2.38776 10.27424,-3.84008 3.43624,-1.48736 6.80689,-3.13994 10.07476,-4.96779 5.87139,-3.28411 11.72707,-6.62162 17.322487,-10.35656 4.8069,-3.2086 12.23732,-10.03165 15.969,-14.48329 2.30657,-2.75159 4.17179,-5.84486 6.25768,-8.76726 1.63938,-3.28176 3.53315,-6.44829 4.91814,-9.84523 4.56398,-11.19386 6.8489,-24.94833 3.97937,-36.88208 -3.0577,-12.71633 -7.81413,-18.32919 -14.63343,-29.2756 -3.58257,-4.0856 -6.87039,-8.44979 -10.74771,-12.2568 -6.23266,-6.11963 -14.171167,-11.93072 -21.994947,-15.94026 -4.01265,-2.0564 -11.82515,-5.10557 -16.7871,-5.08698 -1.96543,0.007 -3.81529,0.9463 -5.72293,1.41945 -3.98698,3.27539 -9.30409,5.40288 -11.96092,9.82615 -3.12945,5.21012 7.62968,20.82274 8.32406,21.80338 11.06536,15.62701 22.45938,26.09224 37.844747,38.1266 10.06866,7.87566 20.87919,14.75379 31.31879,22.13069 38.5289,23.10332 79.82248,40.9202 121.756214,56.77758 25.19851,9.52891 38.54993,13.52304 63.079849,21.92501 6.09463,2.08754 12.15596,4.27109 18.23393,6.40662 -0.66571,7.66279 18.67046,1.99321 15.73834,-2.43189 -2.46156,-3.71491 -8.82217,-1.32614 -13.16688,-2.3178 -17.59596,-4.01619 -39.874239,-10.51261 -56.540799,-15.95866 -11.68124,-3.81704 -23.20089,-8.11189 -34.80133,-12.16785 -17.39468,-6.98007 -42.0307939,-16.18874 -58.899354,-25.36592 -9.44528,-5.13863 -24.50091,-12.91849 -27.14113,-25.63603 -2.64379,-12.73474 8.09406,-20.87118 14.83907,-29.11432 6.9876,-5.44094 13.6974,-11.25878 20.9627901,-16.32282 16.5976999,-11.56874 33.7712139,-20.96302 51.2448739,-31.03512 14.52635,-8.37323 43.49254,-24.7714 58.582169,-34.60014 7.46594,-4.863 14.58268,-10.24214 21.87403,-15.36321 15.33335,-12.259434 31.12652,-24.920944 38.02502,-44.114434 1.68984,-4.70162 3.11195,-9.71757 2.8828,-14.7084 C 167.63729,30.520356 160.62424,24.527353 152.39,12.759089 146.57713,7.4912128 141.14534,1.7694828 134.95137,-3.0445272 121.26362,-13.682797 107.83886,-21.295897 91.516891,-27.203417 c -11.94663,-4.32393 -27.69291,-8.39946 -40.75898,-5.8192 -5.31301,1.0492 -9.87349,4.45309 -14.81022,6.67964 -5.09261,6.45268 -12.39426,11.66019 -15.27783,19.3580298 -5.33897,14.25267 4.20376,40.6516432 8.94865,51.7938432 5.15689,12.10966 11.55032,23.68358 18.21332,35.03443 16.40723,27.950744 33.27223,49.891174 52.272309,76.143484 10.8321,14.37201 40.50891,53.59685 51.77616,69.09866 6.68664,9.19967 13.43005,18.36933 19.6825,27.86943 1.08236,1.64455 21.66721,32.9487 19.97406,40.26504 -1.00198,4.32969 -7.85802,4.15361 -11.78703,6.2304 -10.02879,-4.17867 -20.00872,-8.47666 -30.08642,-12.53603 -17.77282,-7.15902 -36.05392,-13.11209 -53.461809,-21.11775 -20.22839,-9.30275 -39.90632,-19.80501 -59.3009,-30.74024 -38.1460839,-21.50782 -75.190754,-45.4257 -109.443514,-72.78725 -14.33763,-11.4531 -27.42748,-24.38643 -41.141217,-36.57964 -9.54918,-11.47784 -20.60342,-21.85496 -28.64753,-34.433514 -11.34198,-17.73543 -19.60317,-39.18247 -12.09169,-60.43353 3.29354,-9.317892 9.75416,-17.555231 16.96073,-24.3180632 21.16903,-19.8655798 41.069047,-23.8186498 67.688207,-33.5050898 46.42789,-13.61381 94.339194,-20.5963 142.027294,-27.9903 11.5764,-1.79492 54.091889,-7.19376 67.263279,-12.85067 8.90255,-3.82351 16.17257,-10.67457 24.25885,-16.01186 2.32865,-6.12652 7.16074,-11.82773 6.98595,-18.379543 -0.49572,-18.58299 -18.64206,-38.31402 -30.3479,-49.1254 -22.99519,-21.23808 -50.812969,-37.52665 -78.563109,-51.47588 -15.0847,-7.58266 -30.86414,-13.69614 -46.2962,-20.54421 -23.5909639,-7.4541 -57.998104,-20.34242 -83.838674,-21.35111 -10.10598,-0.39449 -20.77803,0.38104 -30.00067,4.53187 -9.383937,4.22342 -18.541117,10.82458 -23.788237,19.67689 -12.47062,21.03887 2.38738,44.2743 9.12381,62.74286 12.69856,15.60519 24.036197,32.42437 38.095677,46.81557 40.00351,40.947363 98.292084,86.179793 143.026194,120.5650238 C 121.15636,50.329376 155.79105,74.401146 208.73472,113.11708 c 17.1332,12.52892 34.15141,25.2143 51.22712,37.82146 11.40317,9.81546 23.5771,18.80087 34.20954,29.4464 6.3342,6.34199 25.32451,22.82087 14.48311,36.049 -3.0833,3.76208 -8.95991,3.95846 -13.71439,4.98544 -37.36546,8.07087 -53.74651,7.59859 -93.9601,10.50708 -64.69651,2.02771 -59.66435,2.36788 -124.871239,2.38942 -19.59135,0.006 -39.18384,-0.0942 -58.77261,-0.41259 -15.9663139,-0.2595 -67.107614,-1.28767 -86.087864,-3.88773 -7.38679,-1.01193 -14.45509,-3.66125 -21.68263,-5.49191 -0.89151,-3.91557 -3.45112,-7.80674 -2.67454,-11.74673 1.90672,-9.67371 17.66528,-28.1215 22.37006,-34.18161 10.45879,-13.47172 22.89268,-28.24586 31.8387,-42.83889 4.29315,-7.00313 7.61221,-14.55864 11.41831,-21.83796 2.24135,-6.79954 5.28148,-13.38603 6.72405,-20.398624 1.24128,-6.0341 1.69098,-12.29229 1.26507,-18.438 -0.9922,-14.31678 -8.09858,-28.40978 -19.8815,-36.78946 -2.82011,-2.00559 -6.23775,-2.99869 -9.35663,-4.49804 -2.84327,-0.0524 -5.88847,-1.21102 -8.52981,-0.15732 -5.55121,2.21452 -10.91334,5.37809 -15.14274,9.60092 -5.88064,5.8715 -3.58455,17.71597 -1.20219,23.74256 6.14226,15.53795 17.77476,27.95433 27.92133,40.754574 24.12437,25.91823 13.07445,14.57139 36.9398501,38.27057 4.66733,4.63483 9.52019998,9.08868 14.0201,13.88623 2.76821,2.95131 6.3381899,5.54648 7.7602199,9.33475 0.536324,1.42872 -1.44409,3.82163 -2.9382,3.51096 -5.0712699,-1.05447 -9.24684992,-4.67062 -13.8702699,-7.00592 -12.2972701,-2.1508 -24.6386201,-4.06321 -36.8918001,-6.45239 -27.48966,-5.36003 -58.59159,-12.54535 -85.791487,-19.24664 -14.33754,-3.53236 -51.7464,-13.22515 -67.42912,-17.90138 -7.56342,-2.25524 -14.99606,-4.92784 -22.49408,-7.39176 -6.96714,-3.44939 -18.32288,-6.88659 -22.13978,-15.294064 -4.14422,-9.12844 3.31617,-16.66269 8.70728,-22.77788 12.8905,-14.62183 23.77715,-21.28066 39.71261,-33.20885 22.23551,-13.82154 29.00394,-19.194937 52.22122,-29.46091 9.7146,-4.2955002 19.40951,-8.8577932 29.6535,-11.6658832 11.161047,-3.05948 22.677947,-5.04309 34.222987,-5.844 32.42854,-2.24964 48.95753,2.32526 81.1974101,7.41239 C 73.642541,18.871096 136.6255,45.286496 201.10477,66.619656 c 43.54082,14.40561 51.89877,16.13799 95.10681,28.0307 24.97759,5.431544 50.19969,11.950084 75.83083,13.886054 27.30714,2.06256 52.96297,-0.61278 72.99438,-21.676914 4.49393,-4.72559 6.09354,-11.53148 9.1403,-17.29722 0.46403,-7.7085 2.55249,-15.49072 1.39205,-23.12548 -1.57525,-10.36405 -5.2429,-20.395918 -9.46533,-29.991017 C 440.962,4.7615028 434.88523,-6.5996172 427.6129,-17.091227 c -18.48305,-26.66507 -41.16517,-48.58854 -67.5553,-67.44633 -15.16837,-10.839 -31.87604,-19.343503 -47.81409,-29.015263 -17.87428,-7.88044 -35.2216,-17.08489 -53.62279,-23.64133 -55.38023,-19.73226 -115.56401,-28.60355 -174.234909,-22.97081 -46.42042,4.45662 -56.82635,10.96917 -99.442744,26.09007 -28.12428,17.32496 -52.70507,28.81393 -73.74297,55.069053 -18.741217,23.38888 -28.991197,51.46056 -31.556817,81.1781098 -3.65856,42.3769332 5.16659,60.9246632 15.86513,101.9992872 9.323117,19.8209 17.539567,40.20112 27.969347,59.4627 23.39605,43.20754 50.31084,81.32734 80.5240501,119.97844 14.2360039,18.2118 29.2747939,35.78979 44.4184939,53.25412 12.44546,14.35259 57.881919,63.5654 73.053089,80.05553 7.31615,7.85982 14.58877,15.76041 21.94845,23.57948 3.99068,4.23979 8.03854,8.42569 12.10168,12.5961 0.7186,0.73758 2.05989,3.13944 2.24156,2.12585 0.9423,-5.25767 2.7764,-11.31671 0.24905,-16.02237 -4.93884,-9.19557 -14.22165,-15.28326 -21.22154,-23.02616 C 125.84397,404.06448 115.04431,391.81982 104.17017,379.64211 68.826331,336.32178 54.189531,320.6544 22.900351,272.19538 -19.423823,206.64595 -53.898463,136.37354 -83.262283,64.182316 c -7.9364,-19.51173 -14.799,-39.443196 -22.198497,-59.1647932 -6.70432,-21.6740398 -20.63804,-60.5060898 -22.15676,-85.3222598 -0.88644,-14.48478 0.96819,-31.027823 18.70588,-34.342833 7.5401,-1.40918 15.188237,2.19256 22.728357,3.60164 13.6704,2.55467 27.2599,5.52474 40.88984,8.28711 42.3818701,11.448113 83.589004,26.833093 123.908924,44.107873 9.47763,4.06063 18.87118,8.32342 28.167539,12.78344 16.9516,8.13271 13.63027,6.14958 23.80152,13.70327 0.20935,-2.64234 2.84771,-6.47827 0.62804,-7.92701 -7.36147,-4.8047 -16.72457,-5.42256 -25.11236,-8.05345 -15.697649,-4.92369 -31.402039,-9.82714 -47.143159,-14.61006 -38.79742,-11.78855 -87.471004,-26.52194 -126.589384,-36.01679 -21.97931,-5.334843 -44.232577,-9.469993 -66.348857,-14.204983 -40.47043,-5.62431 -68.74048,-11.75871 -109.02611,-9.79336 -12.31783,0.60093 -24.89059,1.66065 -36.56635,5.63139 -17.77869,6.04625 -36.76391,16.17529 -34.20317,38.578953 1.19618,10.46528 8.25349,19.38278 12.38023,29.07417 10.23429,11.49411 19.5149,23.91423 30.70286,34.48233 26.46658,25.0002238 71.94559,57.592323 101.09665,77.811923 52.82607,36.64093 54.89636,35.72585 106.427757,69.648274 13.21802,8.70125 26.17592,17.79137 39.26388,26.68704 2.96442,2.40725 36.0869,23.85392 34.97881,37.42267 -1.04489,12.7949 -26.74836,14.86664 -32.23468,15.87108 -40.10158,7.34189 -38.98045,6.27919 -80.806267,10.19947 -34.70085,1.92598 -41.72697,2.65478 -75.11887,3.29578 -9.27667,0.17807 -18.55814,0.32708 -27.83477,0.14664 -12.06028,-0.23458 -26.31018,-0.70967 -38.15953,-4.18868 -4.54088,-1.3332 -8.68949,-3.75247 -13.03423,-5.62871 -6.9895,-5.57909 -13.97066,-9.51378 -17.11562,-18.63738 -4.20792,-12.20729 -1.57726,-25.29269 3.08294,-36.86762 3.41359,-8.47862 7.40016,-16.92421 13.02288,-24.13009 7.89446,-10.11727 18.08266,-18.21384 27.12399,-27.32076 14.07565,-9.09096 27.67139,-18.971974 42.22696,-27.272894 27.0584,-15.43118 63.9695,-31.75539 93.183857,-42.81999 22.27988,-8.43825 49.36731,-17.314713 73.34045,-20.94558 8.54686,-1.294471 17.2604201,-0.987867 25.8906301,-1.481799 11.8008239,2.227009 23.0587439,1.563227 31.1182439,12.169459 2.74063,3.60666 4.85735,8.37769 4.33975,12.87781 -0.78583,6.83223 -4.27469,13.23854 -8.00792,19.01434 -12.6254,19.53314 -28.6285839,31.4442 -45.850744,46.802534 -11.2374,7.97127 -22.12165,16.46538 -33.71221,23.91383 -28.264,18.1633 -54.621337,31.41541 -84.825777,46.24261 -15.60252,7.6592 -31.36331,14.99261 -47.10596,22.3595 -25.9383,12.13802 -52.02288,23.961 -78.03262,35.94517 -12.90607,6.18033 -34.4588,16.12318 -47.68793,23.6733 -5.97654,3.41093 -24.11759,9.88505 -24.21479,21.67118 -0.0885,10.72502 14.76704,15.9371 20.64766,19.72003 8.76127,4.20314 17.38254,8.71151 26.2838,12.60941 25.46681,11.15205 53.89838,21.56931 80.01396,30.58384 33.76401,11.65458 68.07102,22.38034 102.25166,32.73018 16.025597,4.85254 32.115747,9.48925 48.173617,14.23387 38.85514,10.76383 78.022744,20.49473 117.551294,28.47073 11.74637,2.37016 29.76868,6.06827 42.487619,6.29901 3.87418,0.0703 7.70669,-0.81468 11.56004,-1.22203 3.79371,-4.14025 10.48887,-6.8766 11.38114,-12.42079 0.88983,-5.52905 -4.2032,-10.41201 -6.91819,-15.31008 C 115.55961,381.75388 102.9415,365.61777 92.875541,351.66063 56.838251,301.69242 72.473781,324.01762 35.214891,267.793 7.2044471,218.00069 -1.0889829,206.01786 -24.266963,153.85383 c -7.78361,-17.51767 -15.25422,-35.21397 -21.49965,-53.33712 -6.36724,-18.476674 -19.86274,-62.298894 -15.10221,-84.6226 2.23923,-10.5005172 10.81847,-18.5488672 16.22771,-27.823307 9.67594,-4.9171 18.60927,-11.70898 29.02782,-14.75129 36.524944,-10.66562 74.404094,-9.25034 111.794794,-6.012 23.190149,2.00845 46.214139,5.72566 69.174759,9.55016 47.15177,7.85395 86.80818,17.4668298 133.23112,27.9480798 70.48577,17.4495542 34.56527,8.1740432 96.95852,24.9175432 10.77309,2.89101 21.49769,5.97102 32.32518,8.6511 8.89619,2.20203 28.37058,7.23088 39.10806,6.26414 3.31769,-0.2987 6.26023,-2.27923 9.39033,-3.41885 3.89607,-4.74722 9.91669,-8.36143 11.68815,-14.241667 2.4379,-8.092379 -10.47221,-31.7049262 -12.67897,-35.4686562 -9.74867,-16.6268898 -23.30487,-34.5444798 -38.46568,-46.5091498 -10.3266,-8.14959 -22.30813,-13.94869 -33.46219,-20.92304 -38.39859,-13.6743 -48.84103,-20.18667 -90.6807,-23.31174 -39.48324,-2.949063 -70.75577,1.21628 -108.93946,12.47989 -49.06299,14.47284 -60.93063,24.25812 -104.599389,48.747 -25.16391,20.99173 -53.25803,40.1269898 -69.97915,69.548843 -14.95709,26.31791 -19.066084,56.99665 -13.99974,86.592174 6.16493,36.01308 24.11777,66.12698 40.02786,98.20024 22.53932,40.81923 50.482309,78.16334 76.393999,116.80264 10.65176,15.88384 21.72914,32.27615 30.16687,49.55881 2.64606,5.41981 4.48984,11.19574 6.73475,16.79358 -0.13523,4.02892 1.35585,8.4608 -0.40566,12.08675 -5.57134,11.46829 -10.62115,5.05661 -18.33224,3.45186 -8.15792,-1.6977 -16.58768,-2.00157 -24.67378,-4.01381 C 99.454951,404.61566 90.075031,398.89232 65.685881,387.74204 46.198371,376.11667 30.612761,368.28805 13.910711,352.86189 7.7476971,347.16967 1.9142871,340.93992 -2.6117529,333.876 c -6.92416,-10.80672 -11.6081201,-23.86571 -4.41232,-36.18574 3.544,-6.06772 10.19727,-9.67076 15.29591,-14.50615 7.2692139,-2.86618 14.3011739,-6.42837 21.8076239,-8.59854 39.80991,-11.50929 81.239989,-15.46286 122.397759,-18.39523 11.39793,-0.81206 22.83401,-1.02193 34.22964,-1.86574 8.52689,-0.6314 17.01517,-1.70582 25.52274,-2.55873 6.5799,-1.95541 26.92009,-4.95856 26.01815,-17.64115 -0.42939,-6.03761 -7.81995,-9.42951 -12.77728,-12.90254 -8.89736,-6.23337 -18.6454,-11.21037 -28.41692,-15.95754 -34.56505,-16.79234 -58.13998,-24.2461 -94.92982,-37.71603 -48.800959,-14.9782 -64.998749,-20.86469 -114.447413,-32.45418 -35.02074,-8.20796 -61.29246,-13.52378 -96.805437,-15.61121 -30.27619,-1.77962 -35.88728,0.0928 -63.74828,3.66749 -17.96641,6.79718 -24.98862,7.45282 -39.53489,22.05009 -3.69216,3.70511 -5.86818,8.71478 -8.05844,13.4648 -5.61187,12.1705 -6.63052,25.76789 -7.97631,38.87091 2.07449,7.00521 -4.93856,11.00905 -5.98249,16.8898 -0.19536,1.1005 3.66698,-1.46027 2.68957,-2.00248 -2.04485,-1.13434 -4.80202,0.39508 -7.00432,-0.39105 -7.65397,-2.73217 -9.46458,-7.5512 -14.05724,-13.8736 -1.2478,-4.66702 -3.46041,-9.17841 -3.7434,-14.00106 -0.86693,-14.7736 4.06376,-32.22615 11.11496,-44.78674 13.81546,-24.61006 33.77235,-44.599204 56.02845,-61.655484 14.26484,-10.93207 30.11753,-19.61933 45.17629,-29.429 18.98235,-8.19386 37.34766,-17.99883 56.947047,-24.581596 C -19.513493,0.9454528 51.281751,-4.6729272 122.24382,0.2166528 c 52.91867,3.64631 74.87226,10.0220202 125.53602,20.7284512 43.72869,13.061772 47.8449,13.122472 87.7189,29.058972 9.93248,3.96972 19.6877,8.37593 29.41397,12.827 12.43383,4.63322 23.4316,12.1567 35.37749,17.76118 2.49576,1.17091 5.17183,1.91095 7.75774,2.86642 3.62386,-3.00875 9.34442,-4.57062 10.87157,-9.02627 1.24283,-3.62618 -2.37882,-7.31832 -4.0948,-10.74605 -3.23969,-6.47147 -6.70607,-12.85953 -10.73287,-18.87291 -15.29602,-22.842241 -36.57936,-49.0490232 -55.05085,-68.573563 -13.32463,-14.08425 -27.78504,-27.04882 -41.67757,-40.57324 -40.90992,-31.50287 -57.86527,-47.529733 -104.10517,-71.252053 -17.92772,-9.19739 -36.629,-16.95917 -55.66117,-23.57522 -30.41288,-10.57227 -67.800079,-19.28164 -100.532969,-18.2377 -14.19033,0.45256 -28.01,4.66061 -42.0150039,6.99091 -11.61527,5.53082 -24.1921001,9.38114 -34.8458001,16.59245 -24.07261,16.29436 -38.43374,34.0176 -50.26435,60.135483 -5.12071,11.30475 -9.42434,23.19201 -11.39309,35.4453 -5.0911,31.68648 0.95613,53.5840798 5.8338,84.79313 11.71559,42.710183 9.41428,39.473923 25.92275,79.792087 4.55171,11.1165 9.74989,21.9572 14.62484,32.9358 0,0 4.12839,-2.33247 4.12839,-2.33247 v 0 c -5.13313,-10.82349 -10.67758,-21.46131 -15.3994,-32.47046 -16.37961,-38.189824 -15.07188,-38.846644 -26.38041,-79.455762 -4.81664,-33.0109852 -10.31538,-51.889845 -4.63863,-85.188855 3.95994,-23.22851 16.35148,-48.795033 30.61952,-67.328883 6.81121,-8.84761 14.48148,-17.3555 23.66392,-23.70809 10.77369,-7.45344 23.5804801,-11.42215 35.3707201,-17.13322 14.2562339,-2.54504 28.3024539,-6.96778 42.7686939,-7.63513 33.0801,-1.52603 71.450739,6.46666 102.324719,16.94703 40.70183,13.8165 74.36914,31.87822 109.7421,56.26944 17.28563,11.919213 33.08797,25.857873 49.63195,38.786813 34.87454,35.65586 43.29747,41.27335 71.16537,80.499548 7.24966,10.204421 13.67512,20.993745 19.76763,31.928485 3.51171,6.30274 6.39948,12.95576 8.9921,19.68888 1.30969,3.40133 0.14661,7.9747 2.67192,10.60285 1.568,1.63184 4.49411,-0.53763 6.74116,-0.80645 -2.95322,-0.649 -6.01199,-0.93043 -8.85968,-1.947 -5.27587,-1.88339 -10.25339,-4.51679 -15.40592,-6.71535 -7.46876,-3.18689 -14.91718,-6.42606 -22.45711,-9.44067 -10.23605,-4.09256 -20.48158,-8.17505 -30.86476,-11.87841 C 296.28937,32.910506 294.07102,33.333506 248.0159,20.780975 197.4871,10.14064 175.17378,3.7196328 122.42752,0.0836628 c -70.849329,-4.88387 -141.881883,0.68303 -209.527803,23.4809722 -20.084377,6.768811 -38.914847,16.805661 -58.372277,25.208491 -15.44953,9.97707 -31.67607,18.84308 -46.34861,29.93121 -23.03359,17.40662 -44.48245,38.303954 -59.36193,63.334134 -7.58196,12.75434 -13.33122,30.94398 -12.96114,46.22829 0.12077,4.98791 2.24956,9.72187 3.37435,14.58279 4.47378,6.71374 6.17544,11.70868 13.86208,14.99925 8.21799,3.51806 15.36735,-2.01393 21.47586,-7.51711 2.93527,-2.64439 4.6277,-14.15556 5.19585,-16.8828 0.32819,-3.89092 0.48464,-7.80016 0.98459,-11.67276 1.12324,-8.7006 2.83829,-18.51026 6.55162,-26.55399 2.13538,-4.62562 4.92795,-8.94599 7.89839,-13.08516 1.86101,-2.59325 3.7461,-5.43642 6.52296,-7.01038 6.41244,-3.63466 13.66298,-5.53566 20.49447,-8.30348 28.65839,-4.49441 35.08956,-6.73352 66.24736,-5.62667 35.705467,1.26841 63.609257,6.2838 98.748797,14.21765 51.126674,11.54342 63.844054,16.8236 113.887113,32.82344 37.23258,14.69304 57.28969,21.01195 91.3419,40.0074 9.09386,5.07282 17.97889,10.65486 26.07704,17.20094 4.35996,3.52431 7.18143,8.6164 10.97182,12.74713 1.33932,1.45954 5.93865,2.75791 4.39529,3.9997 -4.51469,3.63263 -10.95264,3.78852 -16.42896,5.68278 -8.91506,1.16713 -17.7959,2.6349 -26.74519,3.50133 -76.81077,7.43662 9.20519,-3.19823 -75.61715,6.17699 -19.667859,2.17385 -60.782949,7.07493 -80.427029,13.40565 -11.57439,3.73009 -22.157714,10.02776 -33.2365639,15.04164 -5.24371,5.08103 -12.1580001,8.8755 -15.7311301,15.24307 -7.02279,12.51505 -1.24759,25.74295 5.9570401,36.10245 4.84095,6.96076 10.93489,13.04461 17.29597,18.65029 16.7035739,14.71996 33.2943939,23.29106 52.3780539,34.62784 23.83385,11.35224 33.24982,17.10841 58.235899,24.30132 7.75346,2.23205 15.62753,4.98195 23.69576,4.93906 8.4819,-0.0451 16.97232,-2.20671 24.90964,-5.19732 3.40108,-1.28145 6.82786,-3.86532 8.13958,-7.25487 1.43013,-3.69538 -0.49368,-7.90954 -0.74051,-11.86432 -2.63515,-5.40834 -4.92869,-10.99698 -7.90546,-16.22509 -9.48266,-16.65431 -21.49468,-32.73356 -32.64634,-48.1598 -27.28051,-37.7375 -55.749399,-74.75345 -78.527299,-115.51883 -16.92085,-34.72223 -32.57825,-60.02867 -38.57311,-98.87116 -4.547654,-29.465584 -0.52759,-60.113234 14.09579,-86.410174 16.00503,-28.7815532 42.15572,-47.003983 66.45992,-67.759643 43.560499,-24.51942 55.819369,-34.64527 104.712139,-48.87019 18.23702,-5.3059 36.96333,-9.27161 55.84791,-11.29969 32.28618,-3.467333 67.76416,-0.33852 99.11736,8.14754 14.37169,3.88985 27.86631,10.4963 41.79946,15.74445 10.79828,7.15189 22.44653,13.16205 32.39479,21.45567 14.49546,12.08451 27.94232,30.53343 36.75761,47.2642298 22.24037,42.2106832 -0.26128,2.10533 10.33372,35.9245332 0.61746,1.97094 2.89137,2.95016 4.33705,4.42524 -3.34468,1.45773 -6.42826,3.81629 -10.03408,4.37321 -11.4394,1.76679 -31.88055,-2.34712 -41.68587,-4.2835 -11.37711,-2.24678 -22.66284,-4.93549 -33.96957,-7.513027 -20.8493,-4.752906 -81.34908,-19.0616842 -99.3109,-23.2958362 -21.30282,-4.80984 -42.53465,-9.9457 -63.90849,-14.42953 -46.50504,-9.7558998 -91.15185,-18.4270298 -138.499769,-23.0720498 -32.27784,-3.16659 -75.87393,-6.82199 -108.496384,3.35034 -13.50209,4.21022 -25.02223,13.19154 -37.53334,19.7873098 -5.04043,9.20565 -13.32998,17.27571 -15.12129,27.6169422 -3.72334,21.494821 12.01211,65.875561 18.31899,82.978685 6.62425,17.96378 14.14546,35.59762 22.0023,53.05752 22.7350601,50.52306 32.1864001,65.67685 58.708614,114.39344 28.55071,46.24721 26.47783,43.39222 53.90739,86.07835 5.74668,8.94302 11.8303,17.67173 17.388019,26.73339 4.00752,6.53413 7.52914,13.35413 11.29371,20.03118 1.7532,5.11911 2.63501,10.62549 5.2596,15.35735 0.90956,1.63983 3.22976,1.90635 4.84464,2.85953 -4.13153,0.68464 -8.20931,1.90657 -12.39459,2.05391 -13.2689,0.46715 -32.340479,-2.60969 -44.682439,-4.6505 -40.482,-6.69388 -80.535384,-15.8365 -120.102564,-26.67029 -16.23619,-4.6215 -32.53493,-9.02864 -48.70858,-13.86446 -36.979657,-11.05667 -64.956667,-20.14484 -101.094557,-33.49871 -26.28801,-9.71407 -52.11274,-19.99826 -77.27812,-32.34259 -8.44121,-4.14062 -16.5221,-8.97863 -24.78314,-13.46795 -5.22412,-3.94533 -18.26929,-9.95907 -18.5041,-19.54194 -0.16701,-6.81564 5.02107,-10.32192 9.98205,-13.22803 14.63873,-8.57519 35.34364,-18.34575 50.00856,-25.56473 50.91574,-23.97688 24.31105,-11.51048 79.82726,-37.37093 15.73832,-7.40441 31.53364,-14.69345 47.13702,-22.37813 30.72253,-15.13088 60.707407,-30.25043 89.597407,-48.67658 11.89657,-7.58767 23.09172,-16.22273 34.6375701,-24.3341 17.32652,-15.227804 35.2104839,-28.720574 48.2588639,-48.133484 4.10515,-6.1075 8.0562,-12.87217 8.96436,-20.17485 0.57957,-4.66046 -1.8295,-9.612533 -4.80853,-13.243116 -8.64411,-10.534656 -21.15582,-9.577494 -33.1491839,-11.384008 -9.04447002,0.766652 -18.18983,0.749906 -27.1334101,2.299957 -24.76359,4.291883 -52.58961,13.771767 -75.66413,22.673407 -31.556867,12.17394 -67.299007,28.19641 -96.616667,44.81055 -15.1991,8.61324 -29.47681,18.759524 -44.21521,28.139284 -9.67325,9.43248 -20.51571,17.79864 -29.01975,28.29744 -5.95883,7.35659 -10.21964,16.03915 -13.94325,24.74328 -5.05268,11.8109 -8.34853,25.50579 -4.20598,38.23898 3.0693,9.43427 10.40199,13.36068 17.60667,18.93969 4.52432,1.83131 8.8528,4.25161 13.57295,5.49394 12.39515,3.26234 27.40211,3.21614 39.8901,3.11385 9.62099,-0.0788 19.23665,-0.50056 28.85066,-0.87529 32.2743,-1.25799 42.95185,-2.07505 76.17954,-4.05022 13.934617,-1.16824 27.902937,-1.98704 41.803837,-3.50475 24.23439,-2.64588 48.74017,-4.92276 70.7760801,-16.76571 16.9384739,-9.10338 10.1511239,-16.91071 -1.24425,-26.90877 -8.64564,-7.58551 -18.8247401,-13.22034 -28.2371201,-19.83052 -33.45603,-20.78752 -57.75929,-35.66416 -91.409477,-57.62541 -18.86171,-12.309774 -37.75023,-24.591044 -56.24128,-37.450904 -35.58512,-24.74817 -68.63259,-47.914697 -98.77527,-79.200743 -10.5409,-10.94072 -18.90047,-23.79101 -28.35071,-35.68652 -3.59598,-9.80889 -9.82165,-19.02418 -10.78794,-29.42666 -1.64758,-17.7366 8.87079,-27.910453 24.24506,-32.878063 12.34277,-3.98809 25.34854,-6.00274 38.28321,-6.97389 44.01272,-3.30453 65.98053,2.43141 110.62384,8.63143 22.11605,4.73465 44.369087,8.86942 66.348157,14.203963 44.96915,10.91447 81.379704,21.92498 124.685574,37.30318 14.71859,5.22667 29.21778,11.05951 43.694679,16.92248 7.58797,3.07303 14.42607,8.44006 22.48514,9.87955 5.28772,0.94448 10.55035,-2.02439 15.82553,-3.03659 -20.50897,-8.16286 9.76916,3.95169 -27.43494,-11.39382 -9.79046,-4.03826 -19.583029,-8.07382 -29.438579,-11.95049 -40.86254,-16.07323 -82.09089392,-31.34436 -124.151674,-44.017093 -29.66969,-7.31989 -43.93307,-15.24621 -74.184347,-6.76749 -5.74586,1.61043 -11.71769,5.48198 -14.1914,10.91238 -3.13225,6.876073 -2.15318,15.160103 -1.09328,22.641283 3.0404,21.4603 19.86444,65.76468 25.96356,83.2774298 20.435567,54.4656632 25.841497,71.9259932 51.454927,126.5016172 23.67846,50.45273 46.6554401,93.82597 76.909094,140.68127 22.55085,34.92564 54.01908,75.16815 79.398979,108.57251 9.94673,12.73421 19.99694,25.38825 29.84019,38.20263 6.24898,8.1352 10.69293,17.91179 18.43402,24.64282 4.32317,3.75907 10.99995,3.29083 16.27138,5.53421 1.31344,0.55896 -3.04856,0.32964 -4.26138,-0.4231 -5.15481,-3.19929 -9.77531,-7.20627 -14.38559,-11.14999 -8.33533,-7.13018 -16.28414,-14.7002 -24.42621,-22.05029 C 112.08608,404.19367 100.27705,393.05927 89.105441,381.30232 62.514051,353.31769 27.551011,313.37333 4.1969571,283.49716 -24.674963,246.56217 -54.247523,205.04276 -76.324813,163.52267 c -10.29332,-19.35833 -18.0355,-39.96888 -27.053247,-59.95332 -9.97535,-41.536414 -18.35362,-60.172404 -14.20462,-102.7313272 2.9092,-29.8414998 13.21645,-57.6202298 31.991047,-81.1576998 20.23076,-25.363023 41.88196,-35.600003 68.79249,-52.395583 43.053444,-15.53199 53.583024,-22.20125 100.487264,-26.94071 58.819769,-5.94346 118.958279,2.69473 174.415679,22.80525 18.27573,6.62733 35.46367,15.93814 53.19549,23.9072 15.67746,9.82697 32.1665,18.464643 47.03236,29.480913 35.63104,26.4042 66.50037,60.8939 82.88448,102.574569 3.84482,9.781151 6.87295,20.045774 8.01561,30.493164 0.84235,7.7017 -1.43288,15.42887 -2.14932,23.1433 -4.42494,8.1626 -8.87285,20.8894 -18.62667,25.44147 -16.43126,7.668404 -34.7667,8.468984 -52.49005,7.573164 C 348.90235,104.39517 324.9176,98.480036 298.3432,93.185626 253.43642,81.390786 247.58288,80.564436 202.46431,65.700016 138.30541,44.562716 75.898371,17.857604 10.106547,1.8572328 c -31.1883,-5.30801 -48.61443,-10.19542 -80.10576,-8.37878 -11.43236,0.6595 -22.86035,2.48458 -33.915997,5.46897 -10.31663,2.7849 -20.12699,7.2647 -29.83104,11.7390782 -27.26201,12.570079 -37.12917,19.644975 -61.82446,34.945245 -16.1213,11.88036 -28.59626,19.58158 -41.79142,34.31946 -3.92793,4.38717 -8.11354,8.92669 -10.1709,14.44422 -1.16123,3.11424 -0.4927,6.988334 1.08924,9.911424 4.38117,8.09546 17.47008,11.45994 24.35071,14.332 7.88495,2.2092 15.72725,4.57672 23.65486,6.62761 7.90175,2.0442 64.61151,15.54545 69.25775,16.65051 20.02579,4.76297 64.567027,15.30859 84.707097,20.01521 11.56606,2.70292 23.14357,5.35658 34.7153501,8.03487 9.83219998,-0.51842 19.8042399,0.17655 29.4965939,-1.55525 1.32793,-0.23727 1.78114,-2.7634 1.06241,-3.90494 -2.21424,-3.51685 -5.91933,-5.83696 -8.971694,-8.65726 -4.8910399,-4.51918 -9.9812999,-8.82014 -14.8550399,-13.35798 -20.7731801,-19.34151 -17.2119701,-16.33695 -37.1928901,-38.00769 -5.36371,-7.247654 -11.34177,-14.078654 -16.09113,-21.742944 -6.36313,-10.26853 -12.52048,-21.70482 -11.06942,-34.32353 0.37004,-3.21793 3.33576,-5.66033 4.10938,-8.80572 0.15144,-0.61571 -2.52088,-0.16391 -1.88935,-0.22053 2.8454,-0.2551 5.70808,-0.25181 8.56212,-0.37771 3.17165,1.34904 6.63003,2.16123 9.51493,4.04712 11.89613,7.77662 19.17391,21.6073 20.44842,35.60752 0.54533,5.99033 0.24239,12.11162 -0.86026,18.02479 -1.28266,6.878474 -4.15889,13.361804 -6.23833,20.042704 -3.69154,7.19586 -6.86798,14.68019 -11.07461,21.58758 -9.07175,14.896 -21.48336,29.42546 -32.29877,43.0015 -4.4876,5.63306 -22.64416,26.11362 -23.984817,35.84048 -0.5637,4.0898 3.235677,7.59654 4.853517,11.39479 7.97514,1.33818 15.86755,3.33319 23.92542,4.01455 18.44518,1.55964 74.1212601,1.56495 89.210544,1.646 60.93371,0.32737 121.873429,0.30453 182.791949,-1.34586 17.33489,-0.78772 34.70404,-1.01838 52.00462,-2.36315 18.65617,-1.45013 49.43372,-2.53 64.77129,-17.98677 3.2479,-3.27311 2.14993,-9.85387 -0.18163,-13.83204 -4.7053,-8.02824 -12.50479,-13.85519 -19.5848,-19.89384 C 285.0268,168.8423 272.33574,160.1444 260.15342,150.81716 243.07767,138.20996 226.05943,125.5245 208.9262,112.99555 155.97943,74.277376 121.35204,50.211146 68.363931,9.4817418 31.082041,-19.175057 -41.325143,-75.210517 -74.567093,-111.13321 c -13.52904,-14.62006 -23.03803,-32.50189 -34.557037,-48.75284 -7.76986,-25.35023 -17.56044,-37.94958 -6.66876,-63.20111 7.44873,-17.2693 28.373987,-19.55498 44.264097,-19.36955 27.12859,0.31658 60.37623,12.62789 85.365774,20.21881 15.39024,6.86658 31.19478,12.87116 46.1707,20.59975 27.54793,14.2166 54.026179,30.76199 76.018049,52.90694 11.43164,11.51122 27.44998,31.36259 27.65865,49.788953 0.0713,6.29863 -4.38743,11.8094 -6.58114,17.71411 -4.36258,3.31528 -8.01815,7.86678 -13.08774,9.94586 -16.24995,6.66423 -53.910489,11.95602 -69.432919,14.54136 -47.49249,7.91012 -95.312854,14.66226 -141.767974,27.71214 -26.85855,10.49816 -53.993097,17.55517 -75.655547,37.8745898 -7.3072,6.8541642 -13.90016,15.2363912 -17.06425,24.7423532 -2.96659,8.91259 -2.84265,19.06557 -0.54935,28.17467 6.99099,27.7686 27.43453,44.327164 45.73507,64.570734 39.722027,34.11342 48.178747,43.34792 93.479417,73.47656 35.521854,23.6249 78.409934,47.54173 116.630174,66.52757 16.601419,8.24674 32.934899,17.43109 50.578379,23.11646 13.54812,4.36568 28.10845,4.51202 42.16267,6.76804 3.44662,-2.29338 9.87496,-2.76643 10.33989,-6.88015 0.77369,-6.84598 -21.69567,-37.79644 -22.54261,-38.97143 -6.67459,-9.25986 -13.75808,-18.21846 -20.72422,-27.26105 -73.956649,-96.00144 27.39776,36.57899 -52.77693,-68.49492 -19.775999,-27.75938 -34.704499,-46.91659 -51.029749,-76.799694 -10.70462,-19.59464 -21.78549,-43.02343 -24.58472,-65.7764 -0.79744,-6.4817832 1.57427,-24.453623 2.62154,-33.199653 4.99856,-2.4171 9.58031,-6.0259 14.9957,-7.2513 13.31273,-3.01243 29.10577,0.61921 41.44516,4.95202 16.000309,5.61828 29.860829,13.5391698 43.075179,24.1247098 6.0376,4.83649 11.22888,10.6437482 16.84331,15.9656252 7.89358,12.102549 14.2034,17.729858 14.76795,32.535018 0.18559,4.86712 -1.1004,9.76111 -2.70785,14.35888 -6.53157,18.68215 -21.67789,31.07862 -36.48332,43.077114 -7.10305,5.03278 -14.03064,10.32284 -21.30915,15.09835 -8.236239,5.4039 -16.744569,10.38329 -25.208799,15.42259 -10.36925,6.1735 -50.57921,29.00245 -57.43568,33.111 -9.3196039,5.5845 -18.6576239,11.16768 -27.600054,17.33812 -7.65093,5.27928 -14.75067,11.31584 -22.12601,16.97374 -6.93137,8.4221 -18.70941,17.08499 -15.07162,30.38892 3.33196,12.1855 20.59382,20.14448 29.53074,24.60951 15.3639501,7.67606 44.695774,18.708 59.975614,24.69552 11.41991,4.18465 22.79999,8.47966 34.25974,12.55395 33.036799,11.74557 24.403659,8.22137 53.512029,18.07998 0.28281,0.0958 21.71098,11.32687 20.811,-2.2851 -0.21817,-3.29985 -6.41961,-1.59239 -9.62941,-2.38858 -18.05055,-4.91789 -30.10018,-8.05598 -48.775859,-13.93187 -12.09101,-3.80418 -24.1776,-7.64437 -36.10258,-11.94078 -42.03622,-15.14501 -83.177354,-33.00343 -120.870734,-57.2371 -10.07409,-7.58269 -20.60064,-14.59889 -30.22225,-22.74807 -13.953657,-11.81828 -25.669737,-23.91741 -35.158347,-39.42946 -2.58174,-4.22066 -4.76974,-8.75634 -6.15843,-13.50512 -0.76398,-2.6125 1.46759,-5.99583 -0.17823,-8.16381 -1.13426,-1.49412 -3.73371,0.36775 -5.60057,0.55162 1.90594,-0.65536 3.70795,-1.81591 5.71781,-1.96607 5.0279,-0.37565 13.16844,2.37769 17.31201,4.29833 8.05693,3.73458 16.03654,9.23412 22.430907,15.34213 3.8999,3.72525 7.16975,8.05865 10.75462,12.08798 7.0046,11.45171 11.09418,15.89809 13.93785,29.19013 2.57008,12.01316 0.0835,25.50511 -4.6344,36.65123 -1.42214,3.35984 -3.34392,6.48558 -5.01588,9.72834 -2.11284,2.88168 -4.01621,5.92931 -6.33851,8.64499 -5.78199,6.76148 -9.06009,8.68603 -15.985787,14.25033 -0.47252,0.37965 -0.84289,0.89953 -1.37481,1.19017 -9.75659,5.3307 -9.91173,4.98798 -20.2119,8.8936 -3.45004,1.06267 -6.86866,2.2333 -10.35011,3.18805 -10.79567,2.96055 -21.89564,4.70474 -32.99401,6.03758 0,0 -8.87578,6.61881 -8.87578,6.61881 z" />
    <path
       style="fill:#0000ff;stroke-width:0.264583"
       id="path841"
       d="m -180.42317,340.5281 c 1.84911,0.0286 3.69814,0.10811 5.54733,0.0857 9.21719,-0.11155 19.26192,-0.57745 28.32105,-1.29548 17.07414,-1.35331 31.93303,-2.98093 48.932567,-6.20104 10.15599,-1.92376 20.17959,-4.4904 30.26939,-6.7356 23.8419,-6.72894 36.54251,-9.55723 59.4116701,-18.97526 19.3496699,-7.96864 38.5508239,-18.18042 55.6453239,-30.24518 18.85022,-13.30391 21.90057,-18.87434 36.59741,-35.90284 3.41706,-7.61082 8.01571,-14.79482 10.25119,-22.83243 4.49654,-16.16733 4.3733,-34.08706 -3.07657,-49.52418 -4.20252,-8.70816 -10.3361,-16.555 -17.22633,-23.33867 -20.00908,-19.69963 -35.19717,-23.88729 -60.47631,-35.55574 -22.1107039,-6.6125 -43.699994,-15.009394 -67.265624,-14.897364 -8.86751,0.0422 -18.77727,-0.14856 -26.17771,4.73693 -7.74078,5.110164 -14.41856,13.761414 -15.74833,22.941014 -3.14664,21.72179 24.42541,51.53195 33.64706,64.33472 12.6427,12.76558 24.77713,26.05543 37.92812,38.29673 14.3482701,13.35577 29.4539501,25.88053 44.507214,38.43636 22.72561,18.95525 58.8953,47.11999 82.836069,65.77256 10.36529,8.07574 20.88138,15.95919 31.1529,24.15386 7.46082,5.95228 14.69137,12.18759 22.03706,18.28139 3.19186,3.94332 8.45172,6.88279 9.57559,11.82997 0.50345,2.2161 -4.15673,3.40588 -6.29144,2.62644 -7.9308,-2.89571 -14.12485,-9.38115 -21.80615,-12.88547 -16.49549,-7.52544 -33.99255,-12.69813 -50.535859,-20.11789 -58.5929,-26.27916 -75.123564,-37.73649 -132.476394,-70.5584 -46.13191,-29.6391 -85.327847,-53.05864 -128.101217,-87.13702 -16.25531,-12.95093 -32.19995,-26.4492 -46.53933,-41.49393 -16.23102,-17.02944 -38.45284,-44.97983 -41.21929,-70.838144 -0.94585,-8.84103 3.7478,-17.38355 5.6217,-26.07532 7.61848,-6.27479 13.91409,-14.64505 22.85544,-18.82435 22.54636,-10.538456 78.12293,-14.598696 97.65843,-15.417465 23.29108,-0.976172 46.631167,-0.338045 69.933927,0.301069 43.70925,1.198793 102.265884,5.542436 145.993334,8.469386 28.099049,1.82073 87.974399,5.90605 118.149629,7.15024 13.60286,0.56088 27.22118,1.22224 40.83259,0.93464 12.25695,-0.25897 43.12745,-0.2391 51.52681,-15.177919 3.83772,-6.825644 -1.55284,-15.5839292 -2.32926,-23.3758942 -6.15067,-10.83291 -11.34851,-22.2652998 -18.45199,-32.4987198 -9.34403,-13.4612 -20.03034,-25.96007 -30.73747,-38.36459 -22.55681,-26.13268 -49.34164,-53.749013 -76.08512,-75.614373 -33.45966,-27.35649 -51.72285,-36.89545 -87.918039,-59.00881 -25.64711,-12.85849 -43.47829,-23.55778 -70.7179939,-31.26529 -11.52214,-3.2602 -29.9926001,-8.84999 -40.7578801,2.17665 -5.76365,5.90358 -11.17445,13.48769 -11.89367,21.70685 -0.79006,9.02864 5.14179,17.38172 7.71268,26.07258 5.89588,10.47953 11.06762,21.40081 17.68764,31.4386 14.0091401,21.24175 38.086564,49.61341 54.394804,68.876673 13.62283,16.09127 36.23789,41.43678 49.7126,58.52494 5.75947,7.30396 10.99828,15.00383 16.49742,22.5057498 5.467739,10.66735 14.119509,20.0179122 8.527779,32.9742532 -4.63625,10.74244 -16.777849,15.70949 -26.607119,19.29457 -30.26887,11.04013 -39.96389,12.02547 -72.4822739,19.32345 -40.4241601,8.01328 -81.6166301,12.32052 -122.8582671,11.54035 -20.49552,-0.38771 -42.2795,-2.05786 -62.2521,-7.36235 -7.30963,-1.94135 -14.18045,-5.2643 -21.27067,-7.89644 -9.66549,-7.92026 -19.11037,-11.8086 -19.30465,-26.35997 -0.21164,-15.851415 11.78838,-34.7365532 19.84956,-46.4355632 14.0459,-20.3845198 27.53881,-33.5666998 44.32746,-51.6230798 20.27905,-19.5111 21.96678,-21.71057 42.20182,-39.15392 7.51435,-6.477653 18.696227,-16.201023 27.901937,-21.307153 0.52385,-0.29056 -0.77234,1.21814 -0.46915,1.73478 0.61303,1.04465 1.88463,1.52203 2.82694,2.28304 -0.45522,2.75816 -0.52375,5.6088 -1.36567,8.27449 -4.01926,12.725743 -10.53233,23.943183 -17.15951,35.491623 -5.473227,9.53758 -11.289457,18.87421 -16.908647,28.32652 -25.29154,42.5441098 -14.90501,24.6146 -39.28676,68.472952 -12.67069,27.772991 -22.10613,42.078061 -24.73466,73.203761 -2.41962,28.651734 3.21917,54.501894 16.61435,80.007444 19.75585,37.61676 37.2924,49.27948 68.054527,78.7687 17.04532,12.0188 33.42634,25.03987 51.13596,36.05641 40.2930701,25.0649 80.726684,43.89165 124.891894,61.16127 42.472359,16.60765 85.948789,29.78906 130.009349,41.38205 18.54811,4.88026 37.31972,8.86767 55.97959,13.30153 28.5419,5.95111 52.47166,11.59041 81.03275,15.39002 8.70696,1.15831 17.46662,2.14759 26.24857,2.32111 6.53573,0.12914 24.21966,-0.697 30.87491,-5.83184 5.37954,-4.15058 8.89159,-10.27647 13.33738,-15.41471 -0.93072,-6.07324 -0.49384,-12.52164 -2.79217,-18.21974 C 406.41977,363.69869 383.6388,334.33994 369.4293,317.88119 341.28962,285.28715 310.48979,256.1494 276.31351,229.86548 257.43266,215.34481 237.0948,202.8241 217.48547,189.30342 167.41625,161.26878 155.39322,152.26793 103.68267,131.54941 88.879781,125.61844 73.801811,120.252 58.403381,116.1059 c -17.75586,-4.78085 -41.56105,-9.06647 -60.4738239,-4.57223 -6.03165,1.43329 -11.0928801,5.53969 -16.6393201,8.30953 -5.52838,5.82417 -12.53164,10.54048 -16.58515,17.47251 -4.91819,8.41075 -4.16883,28.35625 -3.73412,36.99097 0.37858,7.51981 3.12879,30.17403 3.83294,38.10684 0.4488,5.05616 0.68993,10.12859 1.0349,15.19287 -0.88187,3.54256 -0.19506,7.92171 -2.64563,10.62765 -1.17208,1.29421 -2.7323,-2.3055 -4.38739,-2.86178 -7.2408,-2.43369 -15.00995,-3.21342 -22.10551,-6.04272 -21.35425,-8.51482 -44.589827,-22.83255 -62.708547,-36.41672 -11.37401,-8.52744 -21.75656,-18.30284 -32.63484,-27.45426 -15.73069,-16.13786 -40.21882,-37.22467 -47.92613,-60.09011 -8.0345,-23.836094 -1.15793,-45.316764 14.86304,-63.801154 24.54368,-28.317593 49.74467,-34.3398832 83.43399,-49.2262432 21.831367,-5.6433398 43.360307,-12.6229998 65.494127,-16.9300298 47.9639901,-9.33333 103.882804,-13.53233 152.533933,-15.24517 48.83899,-1.71944 99.59665,-0.40171 148.43974,1.55616 20.39564,0.81756 40.76811,2.13599 61.15214,3.20398 27.91986,1.61767 55.69852,4.91575 83.56994,7.10232 8.34935,0.65502 16.70291,1.38119 25.07572,1.57283 4.10483,0.094 18.26419,0.99652 23.1616,-3.82915 3.34809,-3.29905 5.16972,-7.8516 7.7546,-11.77741 -4.96449,-3.26512 -9.56969,-7.1563 -14.89348,-9.79536 -19.48407,-9.65849 -43.88075,-16.70211 -64.67959,-21.23001 -29.58661,-6.44099 -64.04777,-11.00521 -94.26863,-11.72391 -16.02182,-0.38103 -32.03533,1.05512 -48.05299,1.58268 -14.66805,2.65012 -29.58971,4.1558 -44.00415,7.95035 -24.44348,6.43464 -50.84583,18.10958 -71.24371,33.24371 -13.94651,10.34756 -29.060269,27.4375 -33.747419,44.9188898 -2.2701,8.4666742 -0.77283,17.5144082 -1.15924,26.2716132 4.69439,10.14882 8.01647,21.05332 14.083169,30.44646 15.42425,23.88155 39.98399,46.217684 61.05063,64.520874 11.73201,10.19305 24.00709,19.74728 36.21507,29.36512 20.32376,16.01169 39.26168,29.78056 59.9412,45.05018 16.24266,-2.40051 16.89597,20.47782 28.88988,24.24694 2.04152,0.64156 1.49265,-5.3871 -0.38804,-6.40813 -9.40816,-5.10767 -20.40572,-6.51573 -30.4143,-10.31445 C 214.56217,190.30173 187.71715,177.68134 145.86487,159.19987 78.963081,127.29462 74.878851,125.78544 9.2320971,92.760166 -10.159363,83.004796 -29.551443,73.244626 -48.749503,63.113946 c -20.79539,-10.97358 -57.391887,-30.48442 -77.806627,-45.556689 -6.47189,-4.778211 -11.84334,-10.8904542 -17.76501,-16.3356742 -1.63431,-4.24128 -5.36229,-8.20184 -4.90294,-12.7238198 0.99754,-9.81987 12.33867,-11.30113 18.96575,-12.818 9.91217,-2.26878 19.83098,-4.59264 29.88063,-6.14278 27.806907,-4.28918 43.552157,-4.36017 71.617037,-5.77805 27.96200008,-0.47001 56.032154,0.4733 83.694824,4.85403 8.00863,1.26826 20.40576,3.45102 28.14129,7.50517 2.23723,1.17251 3.8786,3.23673 5.81789,4.85509 0.31086,1.65859 1.33664,3.3374 0.93258,4.97578 -0.884,3.58441 -6.96133,8.3422498 -9.27682,10.1706298 -5.88565,4.64747 -12.36425,8.61265 -18.66766,12.65702 -1.76527,1.096533 -3.4206,2.3939722 -5.29581,3.2895922 -0.46691,0.223002 1.4562,-1.368747 0.96086,-1.219176 -5.14075,1.552263 -10.04361,3.813773 -15.14162,5.501103 -9.16312,3.032797 -18.40552,5.821328 -27.63185,8.656 -24.5603739,7.545854 -49.171664,14.925104 -73.739944,22.445144 -22.4626,7.1017 -46.187977,14.32816 -68.401847,22.35207 -8.78349,3.17269 -17.57475,6.36742 -26.11513,10.146 -13.32902,5.89726 -30.21288,15.33533 -40.963,25.088914 -3.66128,3.32188 -5.79055,8.01429 -8.68583,12.02144 -0.63035,4.5825 -2.52453,9.16543 -1.89106,13.7475 1.9071,13.79461 12.61183,26.00211 21.56534,35.32668 7.75333,8.07464 16.20885,15.46551 24.77513,22.67194 26.08386,21.94315 42.21835,32.25764 70.717747,52.2712 13.62294,9.05616 27.147,18.26286 40.86881,27.16853 13.64803,8.85777 27.43569,17.49943 41.2357101,26.1185 32.8002639,20.48608 65.9778539,40.35266 99.6361039,59.39814 7.216809,4.0836 14.504349,8.04098 21.756529,12.06148 9.41148,4.87071 18.5833,10.15992 28.63732,13.65057 5.71769,1.98511 10.28934,2.96706 16.20542,2.11989 6.25676,-0.89598 13.45046,-6.47396 17.8649,-9.08341 1.28812,-1.38983 4.72429,-4.32385 3.89684,-6.76629 -0.65056,-1.92027 -2.53355,-2.31143 -4.11428,-3.04745 0,0 -9.02618,6.00721 -9.02618,6.00721 v 0 c 0.60672,0.24323 2.92862,0.81073 3.26409,1.93294 0.5802,1.94095 -2.85747,4.72432 -3.83614,5.70264 1.77019,-0.89739 5.22131,-0.70948 5.31058,-2.69213 0.0847,-1.88119 -3.43696,1.62231 -5.27984,2.00921 -2.37619,0.49885 -4.83462,0.78357 -7.25727,0.62283 -3.26928,-0.21688 -6.51693,-0.86627 -9.67308,-1.74601 -10.88652,-3.0345 -20.01081,-7.7307 -30.36988,-12.39382 -22.254099,-11.03561 -28.589809,-13.93341 -51.731849,-26.591 -53.35951,-29.1851 -105.154384,-61.22992 -155.111874,-95.91743 -26.603777,-19.66669 -44.412277,-31.70152 -68.540297,-53.56793 -8.16968,-7.4039 -16.12781,-15.09519 -23.35917,-23.41798 -8.2916,-9.54307 -17.96426,-22.29804 -19.50717,-35.73839 -0.511,-4.45136 1.28731,-8.86824 1.93096,-13.30237 4.5601,-6.4473 9.05118,-14.442804 16.03518,-18.903864 13.98064,-8.93019 32.52228,-16.11151 47.74651,-21.77267 24.16052,-8.98413 44.505067,-15.12359 69.211987,-23.00128 41.41982,-12.42601 32.13178,-9.81947 72.0172001,-21.118586 1.8543199,-0.525306 33.3486239,-8.948663 40.0488339,-11.856058 9.14634,-3.968832 14.02172,-7.2051602 21.44235,-11.8590592 3.93939,-2.57878 7.75773,-5.03386 11.61135,-7.75874 2.27602,-1.60937 4.58937,-3.17588 6.74665,-4.94124 2.88822,-2.36351 8.63502,-6.9373498 9.24675,-11.3755498 0.25424,-1.8446 -1.1189,-3.55201 -1.67835,-5.32801 -2.22797,-1.55363 -4.2009,-3.55985 -6.68391,-4.66088 -8.29844,-3.67975 -21.44681,-5.49437 -29.82839,-6.54174 -28.41067,-3.55021 -57.1006339,-4.08316 -85.693564,-3.52893 -26.64438,1.28379 -44.3388,1.57861 -70.74284,5.03495 -9.597867,1.25638 -19.348907,2.16849 -28.605967,4.9977 -1.64648,0.50321 -32.81953,9.06068 -32.61738,21.8623298 0.0725,4.59464 4.52607,7.99868 6.7891,11.99802 6.66535,5.005828 12.94181,10.5764422 19.99605,15.0174842 18.23574,11.480419 64.882487,34.999199 81.184707,43.371759 64.359114,33.05383 128.952614,65.675784 194.614963,96.086824 91.62243,42.69494 27.46539,12.53362 105.86072,49.9425 9.01295,4.30083 17.29819,10.79593 27.07693,12.82234 5.34336,1.10731 14.03439,1.21254 15.89505,-3.91734 4.43849,-12.23683 -47.23252,-7.44 -32.04019,-22.32468 -9.41891,-6.41976 -18.95116,-12.67627 -28.25671,-19.25924 C 211.76492,160.70944 184.76538,140.84494 164.31232,122.75081 143.17999,104.05578 120.11909,81.774696 105.48,57.106306 99.801831,47.537996 96.961391,36.548826 92.702081,26.270092 c 0.42225,-8.671486 -0.94376,-17.6188292 1.26677,-26.0144592 4.63382,-17.5993598 18.593109,-33.2618598 32.429909,-44.0161698 7.99025,-6.21022 16.89481,-11.2953 26.08358,-15.53525 34.68191,-16.00318 44.28322,-15.22792 82.50008,-22.38904 16.03756,-0.5538 32.07097,-2.07798 48.11268,-1.66138 30.24531,0.78546 63.2928,5.48649 92.71389,12.72827 20.52127,5.05117 42.73701,12.45181 61.27498,23.22223 4.699,2.73007 8.54134,6.72168 12.81203,10.08251 2.95817,0.33941 8.58419,-1.94517 8.87452,1.01822 0.30552,3.11881 -5.30312,3.59152 -8.35197,4.31593 -5.5667,1.32265 -11.35896,1.55278 -17.07801,1.72627 -8.89015,0.2697 -17.79129,-0.0792 -26.67981,-0.39881 -7.57367,-0.27236 -86.44602,-4.51835 -87.12883,-4.55476 -20.38413,-1.06813 -40.7567,-2.38667 -61.15245,-3.2044 -75.33762,-3.02051 -151.05612,-4.18712 -226.206699,3.32209 -25.0371039,2.50175 -50.059604,5.6212 -74.770764,10.36183 -21.90441,4.20218 -43.24269,10.95063 -64.864037,16.4259498 -34.76372,15.46786 -63.06581,22.7256232 -88.62439,51.8334432 -7.91042,9.00891 -14.48574,19.93442 -17.12201,31.62994 -8.94463,39.681764 27.91511,68.017324 51.56835,92.165534 27.99161,24.18216 33.57921,30.86789 64.269727,50.37648 9.05485,5.75577 18.40565,11.10366 28.10689,15.6868 14.74001,6.9636 25.98496,12.45074 40.88226,0.7683 2.79703,-2.19342 1.2125,-7.00484 1.81875,-10.50727 -2.17693,-20.9752 -0.94406,-9.97635 -3.7553,-32.99014 -1.27833,-12.09713 -2.99217,-27.21052 -1.51347,-39.43192 0.87559,-7.23667 4.64005,-18.76948 7.02131,-26.49449 5.82423,-3.10176 11.11096,-7.55282 17.4726801,-9.30528 19.8227099,-5.46053 44.5912039,-2.32101 63.7118739,2.05486 36.06861,8.25448 68.510349,21.97763 101.524269,38.68463 20.24571,10.24552 39.59692,22.17027 59.39539,33.2554 19.60891,13.52 39.9663,26.01409 58.82675,40.55998 36.92469,28.47772 62.55012,52.99081 91.14731,89.17348 15.20669,19.24028 33.258,45.8267 40.97653,70.27195 1.83811,5.8215 1.03743,12.16544 1.55614,18.24813 0.64286,2.07449 3.44226,4.66609 1.92855,6.22348 -5.47476,5.63276 -27.66274,7.45418 -32.65339,7.57187 -9.22779,0.21756 -18.47162,-0.40722 -27.66221,-1.26315 -30.81634,-2.86996 -53.06926,-7.61735 -84.18767,-13.15963 -18.8051,-4.3329 -37.73667,-8.14946 -56.41528,-12.99872 -42.89115,-11.1352 -88.79573,-25.26548 -130.007679,-41.37956 -42.61435,-16.66243 -86.0782039,-36.67308 -124.889284,-61.15727 -17.53799,-11.06393 -33.56657,-24.35675 -50.34986,-36.53512 -30.253107,-30.28112 -46.901287,-41.72636 -66.016797,-79.83526 -12.80336,-25.52494 -18.27166,-51.76827 -15.79746,-80.186534 2.69753,-30.98342 12.00757,-45.28162 24.54162,-72.984485 21.78905,-38.970628 16.8305,-31.2023282 40.36623,-68.930548 6.07625,-9.74035 12.481807,-19.27392 18.491517,-29.05546 6.00377,-9.77186 15.54372,-25.241293 19.5456,-36.927143 1.05981,-3.09476 1.06705,-6.45479 1.60057,-9.68219 -8.38252,-5.71068 -3.77756,-4.26538 -19.4412,4.84919 -8.19545,4.76888 -19.372867,14.83055 -25.854687,20.591503 -19.30986,17.16234 -21.21032,19.5108 -40.75919,38.61415 -16.60489,17.89598 -30.81113,32.04175 -45.00855,52.0420298 -8.37055,11.79181 -21.88378,31.7507552 -21.78744,48.1190832 0.0875,14.85615 10.77688,18.86966 20.70156,26.28711 7.4056,2.45944 14.62042,5.59321 22.21681,7.37831 20.58829,4.8381 42.89295,6.14234 63.88341,6.31661 41.255737,0.34251 82.486167,-3.73371 122.9790871,-11.53354 20.1422839,-4.25194 50.5825239,-9.61789 70.3972439,-17.53021 9.34241,-3.73056 34.294219,-13.55197 39.593719,-27.426615 C 120.04435,12.446359 109.95541,2.2365428 104.3156,-7.1511472 98.421051,-14.427867 92.709501,-21.856727 86.631951,-28.981317 c -7.687,-9.01131 -15.73917,-17.70463 -23.59946,-26.5652 -19.09903,-21.52952 -38.37465,-42.56699 -55.8379539,-65.500813 -8.6831,-11.40317 -17.2628201,-22.94314 -24.7078801,-35.19057 -6.22873,-10.24651 -10.80458,-21.41059 -16.20688,-32.11588 -2.02439,-8.82329 -4.33508,-17.58575 -6.07317,-26.46989 -0.85438,-4.36711 -4.27493,-9.61517 -1.69595,-13.24153 8.99713,-12.65102 33.2756401,-6.74755 42.9989301,-4.42721 28.7971739,6.8721 45.8908539,16.8134 73.1463639,29.57285 14.64316,8.6618 29.748129,16.58654 43.929459,25.98539 33.82309,22.41664 55.99602,40.7911 84.47032,69.6063 20.92931,21.179863 48.27609,52.830903 64.11706,78.540733 6.50164,10.55212 10.72044,22.3505198 16.08066,33.5257798 0.44032,7.6369642 3.63646,15.6201152 1.32096,22.9108992 -1.25817,3.961504 -6.62006,5.479164 -10.65474,6.478034 -9.9722,2.46882 -20.33561,3.15867 -30.59277,3.73364 -14.18529,0.79518 -28.41609,0.64095 -42.62109,0.37045 -39.76043,-0.75714 -79.50429,-3.85158 -119.162389,-6.42128 -45.47496,-3.044117 -100.495404,-7.151149 -145.994154,-8.47051 -23.20559,-0.672909 -46.437777,-1.164748 -69.644107,-0.517876 -35.90344,1.000805 -70.45361,2.053904 -103.54817,17.952486 -9.12605,4.38415 -15.53142,12.99219 -23.29713,19.48828 -1.36842,8.55098 -5.5955,17.12235 -4.10525,25.65294 4.38914,25.124414 29.41316,52.450744 45.36822,68.531174 51.24246,51.64509 113.62215,89.97175 174.643077,128.63494 71.453904,40.89238 61.394044,36.6186 131.355384,71.30737 15.582549,7.72626 30.630619,16.85216 47.088079,22.47914 11.55072,3.94933 23.94942,5.18432 36.13104,5.97445 1.7367,0.11266 4.82891,-1.84981 3.98584,-3.37236 -2.55574,-4.61555 -7.82304,-7.08101 -11.73456,-10.62151 -7.90393,-5.74545 -15.77377,-11.53805 -23.71178,-17.23633 -10.84453,-7.78473 -21.8409,-15.35777 -32.63511,-23.21211 C 77.533441,308.09087 47.477041,285.70667 21.159501,263.54782 6.2357171,250.9823 -8.6057229,238.27058 -22.561613,224.63809 c -12.74222,-12.44693 -24.18576,-26.15742 -36.27864,-39.23614 -17.08984,-26.73497 -28.07974,-34.89246 -29.89682,-65.63308 -0.32569,-5.50988 -0.54703,-12.91262 3.97766,-16.07362 7.51193,-5.247934 17.77011,-5.289874 26.93074,-5.519374 24.27174,-0.60809 44.98097,7.611604 67.7813201,14.358884 25.1405239,12.02851 39.4896739,15.99477 59.0888639,36.1068 6.67481,6.84946 12.5363,14.75234 16.56697,23.42539 7.15355,15.39275 7.34987,33.12218 2.79633,49.16891 -2.26841,7.99388 -6.91054,15.11409 -10.36581,22.67114 -16.06649,18.67255 -15.82394,20.4238 -36.14748,35.50738 -21.72534,16.12397 -48.8583939,26.80348 -74.401234,34.98881 -9.98924,3.20112 -20.19547,5.68074 -30.29321,8.52109 -9.8925,2.11445 -19.71743,4.57433 -29.67751,6.34336 -8.662127,1.53848 -17.404337,2.61885 -26.150237,3.57222 -15.82085,1.72463 -31.91385,2.41295 -47.82457,1.7168 -1.66513,-0.0729 -3.32203,-0.27572 -4.98305,-0.41357 0,0 -8.98488,6.38501 -8.98488,6.38501 z" />
    <path
       style="fill:none;stroke:#000000;stroke-width:0.264583px;stroke-linecap:butt;stroke-linejoin:miter;stroke-opacity:1"
       d="m -220.73809,313.72022 c 19.96532,8.97274 41.71777,10.629 63.5,11.3393 49.26959,1.60661 100.620487,-20.02041 133.803567,-56.69645 15.3545101,-16.97077 24.05764008,-28.55648 29.4821401,-49.89285 1.87914,-7.39129 3.90467,-15.10317 3.02381,-22.67856 -0.46018,-3.95755 -4.13827,-6.86593 -6.80358,-9.82737 -18.0338701,-20.03765 -67.3623301,-4.49345 -84.6666601,9.82737 -26.464737,21.90185 -26.868817,49.60603 -7.55952,77.10714 42.77495,60.9219 126.005704,100.47078 192.011903,130.77976 9.44175,4.33548 19.15773,8.04703 28.72619,12.09524 3.53477,1.49548 6.85982,3.60484 10.58333,4.53572 1.76283,0.44069 -3.03836,-1.9944 -4.53571,-3.02381 -2.53464,-1.74258 -5.03454,-3.53516 -7.55953,-5.29167 C 70.874831,371.3728 35.289901,346.94297 -21.922623,306.16071 -89.592723,257.92407 -139.45803,221.77299 -207.13095,168.57738 c -14.61154,-11.48569 -28.39192,-23.99526 -42.33333,-36.28571 -5.21435,-4.59686 -10.20375,-9.44779 -15.11905,-14.3631 -2.14557,-2.14557 -4.59465,-4.13978 -6.04762,-6.80357 -0.46021,-0.84373 2.81279,-2.85272 9.82738,-3.02381 7.56147,-0.18443 15.17448,-0.19193 22.67857,0.75595 16.48089,2.0818 32.77071,5.46919 49.13691,8.31548 43.95768,7.64482 156.263327,28.09478 188.988087083027,32.50595 C 41.422841,155.26222 83.049971,159.42721 124.73214,162.52976 c 36.21701,2.69577 72.54189,4.16004 108.85714,4.53572 78.16059,0.80856 120.15671,2.23142 192.76785,-18.89881 15.75147,-4.58377 71.13249,-20.04353 80.88691,-47.625 4.37211,-12.362524 3.13835,-26.297924 1.51191,-39.309534 -1.19629,-9.57029 -4.95406,-18.89128 -9.82739,-27.21428 C 481.27145,3.8619028 463.7454,-26.742397 441.47619,-53.672617 381.93256,-125.67886 296.58941,-180.5132 206.37498,-204.8631 c -27.28296,-7.36399 -55.675,-10.94014 -83.9107,-12.09524 -52.659509,-2.15425 -100.106869,2.58452 -145.898803,30.2381 -19.88683,12.00958 -39.07936,26.69582 -52.91667,45.35714 -36.339857,49.008803 -46.314337,129.468753 -26.458327,186.720246 8.237417,23.75122 20.658977,46.25473 35.529757,66.523804 43.45515,59.22997 75.2634101,86.55805 129.267854,128.51191 11.9826,9.30878 24.62126,17.74224 37.04167,26.45833 1.945879,1.36552 4.221389,2.2579 6.047619,3.77976 0.38716,0.32263 -1.0467,0.19383 -1.51191,0 -8.643859,-3.60161 -17.483829,-6.85115 -25.702379,-11.3393 -27.3492,-14.93536 -53.94638,-31.2085 -80.8869039,-46.86903 -35.0476201,-20.37321 -70.2635901,-40.46188 -105.0773771,-61.23214 -39.525,-23.58102 -79.57219,-46.37774 -117.92857,-71.815484 -59.74713,-39.62396 -122.95199,-84.5068332 -168.57737,-141.363093 -18.67175,-23.26788 -38.56519,-61.951473 -34.77382,-94.494043 4.27101,-36.65955 35.89054,-66.47271 68.03571,-80.13096 73.65197,-31.29418 132.52416,-35.8654 208.64286,-34.01785 23.26317,0.56463 46.68605,1.70681 69.547617,6.04761 22.52285,4.27649 71.67461,16.17544 75.5952401,49.89286 10.46499,89.99894 -97.9025571,136.744393 -161.0178571,169.333333 -18.52418,9.56478 -37.79117,17.71194 -55.94048,27.97024 -14.26413,8.0623398 -37.35523,19.5026998 -40.82142,39.309524 -3.03283,17.330439 32.45664,25.871259 36.28571,27.214289 74.81682,26.24172 156.894667,41.62785 235.8571371,47.625 14.5731139,1.10681 29.3630939,1.96671 43.8452439,0 6.36592,-0.86451 22.36939,-4.25997 17.3869,-8.31548 -13.72465,-11.17122 -32.23898,-16.91689 -49.89286,-18.14286 -70.998594,-4.93046 -106.967934,-2.14738 -162.529751,27.97024 -11.43412,6.197934 -22.35431,13.685564 -31.75,22.678574 -11.02011,10.54782 -28.2345,29.74578 -23.43452,48.38095 8.10407,31.4629 44.39747,61.7467 66.5238,77.10714 116.095047,80.59491 195.386491,109.52572 329.59524,170.84524 21.54915,9.84572 43.42606,18.96115 65.01191,28.72618 10.16674,4.59925 20.25747,9.37278 30.23809,14.36309 1.12691,0.56346 2.62538,1.07259 3.02381,2.26788 0.23906,0.71715 -1.53447,0.18333 -2.26787,0 -8.36184,-2.09048 -16.86536,-3.80577 -24.94643,-6.80358 -23.20806,-8.60944 -45.96865,-18.38656 -68.79166,-27.97024 C 132.93983,400.20696 -59.926543,316.50369 -97.517853,297.84522 -173.46382,260.14943 -248.88511,221.0265 -321.27976,176.89286 c -20.27643,-12.36104 -68.71296,-53.6603 -80.88692,-83.910724 -3.68818,-9.16463 -8.34694,-21.16003 -3.02379,-29.48214 59.25969,-92.645423 203.33658,-101.830783 289.52976,-121.708333 48.336957,-11.14729 98.093937,-15.06472 147.410711,-20.41071 93.070079,-10.0889 168.819919,-12.28052 262.315469,-11.33929 31.52161,0.31734 63.08187,1.13617 94.49405,3.77977 19.56782,1.64679 38.86616,5.68156 58.20834,9.07142 5.1168,0.89676 10.06551,2.57655 15.11903,3.77977 0.24514,0.0584 1.00796,0 0.75597,0 -26.02537,0 -16.46471,0.46672 -57.45239,-4.53572 -49.42229,-6.03185 -98.72832,-12.99991 -148.16667,-18.89881 -39.26374,-4.684873 -78.54407,-9.322523 -117.92857,-12.851193 -60.497609,-5.4203 -194.121813,-16.43918 -260.04761,-12.09524 -22.4977,1.48241 -120.67041,10.27941 -127,56.696433 -4.99601,36.63741 10.13415,74.9549078 27.97024,107.345243 21.2041,38.50664 137.349127,116.003794 164.797617,133.047614 78.125974,48.51143 140.652284,75.90507 224.517843,112.63691 27.00549,11.82796 54.52065,22.46008 81.64287,34.01785 17.22925,7.342 34.6102,14.39034 51.40476,22.67857 2.72098,1.34282 8.08673,3.29798 6.80358,6.04761 -1.861,3.98785 -7.79291,4.36644 -12.09525,5.29167 -19.23753,4.1371 -38.59829,8.20118 -58.20833,9.82739 -32.15934,2.66687 -64.49578,2.54222 -96.76191,3.02379 -106.802769,1.59409 -216.483743,2.40324 -320.5238,-25.70237 -24.27177,-6.55682 -82.21414,-28.7637 -103.56548,-50.64881 -9.77842,-10.02287 -17.73381,-22.71033 -21.16666,-36.2857 -11.9963,-47.43992 65.98802,-77.7976 93.73809,-85.42262 66.25223,-18.20444 158.249507,-22.50493 225.273811,-22.67857 144.542979,-0.37447 187.457669,3.85003 328.083319,22.67857 10.29768,1.37877 19.91209,6.41219 30.23811,7.55952 0.25043,0.0278 0,-0.50397 0,-0.75595 0,-2.26786 0.13317,-4.53963 0,-6.80357 -0.37113,-6.30883 -0.0679,-12.74625 -1.51191,-18.89881 -4.3734,-18.63452 -6.48665,-38.50427 -15.875,-55.184524 -16.9573,-30.12804 -35.7547,-60.63683 -61.98809,-83.154764 -55.34945,-47.510249 -107.21361,-74.430529 -176.13691,-80.130949 -14.72909,-1.2182 -45.729269,-1.23708 -55.184519,17.3869 -24.49791,48.2534598 9.84391,98.655233 41.577379,136.827383 29.30978,35.256704 70.59848,58.530984 106.58927,86.934524 30.75477,24.27133 35.69409,20.93586 62.74406,49.13689 12.02827,12.54011 6.03379,26.82661 -6.80358,36.28573 -9.16474,6.75296 -19.62816,11.7489 -30.23809,15.875 -56.13368,21.82976 -115.34371,39.8517 -175.380949,46.86903 -0.79815,0.0933 -16.73008,1.31365 -18.14285,-1.51191 -0.90153,-1.80303 -0.46172,-4.08533 0,-6.04761 1.56999,-6.6725 2.13896,-14.02366 6.04761,-19.65476 11.20559,-16.14365 24.98087,-30.38977 38.55358,-44.60118 7.89141,-8.26278 16.768189,-15.55623 25.702369,-22.67857 27.11436,-21.61563 54.65802,-42.69441 82.39882,-63.5 16.61115,-12.45837 144.64046,-104.563744 167.06548,-124.732144 17.11523,-15.392949 33.03077,-32.4646732 46.11309,-51.404763 4.24103,-6.14 8.11996,-15.37746 4.5357,-21.92262 -3.84643,-7.02394 -13.91444,-9.82738 -21.92261,-9.82738 -20.92076,0 -42.61355,1.93405 -61.98809,9.82738 -68.17889,27.7765898 -89.63665,53.713965 -133.80357,107.345243 -20.90952,25.39012 -46.07183,62.801384 -12.85118,93.738094 31.15148,29.00983 68.37526,51.00892 105.07736,72.57143 20.87298,31.54256 59.13099,24.27383 87.69048,38.55355 0.67615,0.33808 -1.55069,0.23907 -2.26785,0 -1.60364,-0.53454 -3.07057,-1.42486 -4.53572,-2.26785 C 334.33359,256.35337 297.95997,237.71938 263.82738,215.44641 144.07509,137.30299 74.284481,85.029986 -29.482143,-9.8273772 c -7.58901,-6.9374298 -13.38672,-15.8305098 -18.14286,-24.9464298 -1.51527,-2.90427 -2.31633,-7.51105 0,-9.82738 15.99109,-15.9911 57.3080901,-17.86908 72.571434,-18.14286 39.07157,-0.70084 78.282129,-0.0424 117.172609,3.77976 125.36662,12.32104 196.26757,26.39793 312.20833,51.4047598 23.77975,5.12897 47.59973,10.19508 71.05952,16.630954 33.51718,9.1949742 66.69095,19.6227932 99.78572,30.2380992 69.10322,22.16517 143.41303,46.47089 209.39882,77.107144"
       id="path843" />
    <rect
       style="fill:none;fill-opacity:1;stroke-width:0.264583"
       id="rect861"
       width="508"
       height="522.3631"
       x="-243.41669"
       y="-154.21429" />
    <path
       style="fill:url(#linearGradient940);fill-opacity:1;stroke-width:0.264583"
       id="path924"
       d="m -200.82196,329.85036 c 17.5581,-0.56748 35.12033,-0.2308 52.67084,-1.19684 9.83277,-0.54123 19.6459,-1.39414 29.46885,-2.09122 12.00219,-1.5345 24.047797,-2.76087 36.006557,-4.60348 12.94674,-1.99485 25.84793,-4.30673 38.6871,-6.90541 22.9087,-4.6368 49.4178301,-10.87041 71.570114,-18.73428 25.8103,-9.16241 33.11083,-14.06154 56.47532,-26.46688 18.966319,-12.03825 26.496199,-14.9961 41.131729,-29.70794 7.60968,-7.64934 12.99302,-14.00593 14.59223,-24.8956 1.55689,-10.60147 -1.75336,-15.40742 -5.43312,-24.96427 -2.806,-4.02733 -5.28631,-8.30237 -8.41802,-12.08198 C 113.89168,163.67401 98.038801,152.84608 82.035671,143.20051 65.642851,133.32005 54.666791,128.07525 37.507541,119.27086 2.2794071,102.282 -33.447493,86.329906 -68.307333,68.578516 c -20.63542,-10.50799 -22.51411,-11.81555 -41.620237,-22.59674 -11.16702,-7.00519 -23.14474,-13.30039 -32.84267,-22.409415 -2.74432,-2.57768 -6.26465,-6.286556 -6.83575,-10.365362 -0.23867,-1.704639 0.45934,-3.4117492 0.68902,-5.1176162 7.62483,-7.14762 7.84283,-8.21509 18.56438,-13.53166 3.21587,-1.59468 6.75219,-2.43875 10.12227,-3.67463 7.7699,-2.8493898 15.45353,-5.9427198 23.297577,-8.5811498 23.53206,-7.91526 35.65843,-10.7107 60.1926,-17.27436 12.15352,-2.85171 24.27176,-5.85824 36.46056008,-8.55516 28.60042392,-6.32816 60.54721392,-12.62101 89.27625392,-17.8796 32.831889,-6.00958 59.757019,-10.52649 92.800449,-15.14131 14.40768,-2.01216 28.86351,-3.66303 43.29528,-5.49455 41.4487,-4.81879 83.06747,-8.16395 124.7729,-9.58936 13.48184,-0.46078 17.93068,-0.43258 30.52291,-0.54266 3.02522,-0.27042 6.07814,-0.32144 9.07566,-0.81127 7.24612,-1.18409 13.05282,-4.78342 18.68741,-9.817933 1.15219,-1.02948 1.4015,-2.85337 1.46693,-4.3971 0.20519,-4.84125 -2.41599,-8.62867 -4.42433,-12.76239 -2.06664,-2.75721 -3.91885,-5.68899 -6.19988,-8.27163 -10.7066,-12.12229 -23.99667,-21.78275 -37.66071,-30.26188 -5.843,-3.62583 -11.79885,-7.07824 -17.86893,-10.30957 -6.3129,-3.3606 -12.83948,-6.30344 -19.25923,-9.45517 -7.64005,-2.86224 -15.15951,-6.0697 -22.92014,-8.58672 -28.10518,-9.11544 -57.24945,-14.32026 -86.46353,-18.28758 -9.88266,-1.34209 -19.78998,-2.51931 -29.71649,-3.48517 -9.4878,-0.92317 -19.00968,-1.45384 -28.51454,-2.18075 -41.55147,-1.81671 -83.250779,0.21858 -124.508779,5.40456 -6.91736,0.86948 -13.80284,1.97608 -20.704274,2.96412 -20.2661599,3.45411 -40.34175,8.18241 -59.81841,14.80879 -5.67433,1.93053 -11.31301,3.98981 -16.82394,6.34661 -14.64813,6.2644 -20.69863,10.67584 -35.232177,19.35376 -15.53866,10.67618 -27.26227,22.93301 -35.88956,39.79361 -5.16962,10.10315 -6.28428,14.76791 -9.85485,25.455743 -2.02216,9.9171 -3.71882,15.71204 -3.7921,25.85259 -0.06,8.30987 1.21884,17.03435 3.94376,24.90407 3.61819,10.44957 5.99543,12.50766 12.27182,21.44545 3.04354,3.06522 5.84231,6.39464 9.13063,9.19566 13.23221,11.2713198 29.351077,18.7451998 45.024197,25.860621 11.30339,5.13162 33.14501,14.30184 44.29332,19.028392 24.43206,10.12344 48.7231,20.64468 72.413124,32.41966 13.05564,6.48922 23.99873,12.30395 36.30001,19.94891 4.5176,2.80758 8.85058,5.90189 13.27587,8.85283 3.44084,2.8621 7.12674,5.45292 10.32252,8.58629 7.733719,7.582654 14.334519,17.569484 16.543889,28.324024 2.01198,9.79372 0.62009,13.12188 -0.78663,23.05313 -1.53836,4.40943 -2.62893,9.00161 -4.6151,13.22829 -8.341189,17.75052 -21.922709,32.47908 -37.303579,44.38747 -6.53671,5.06092 -13.35428,9.80527 -20.51657,13.93361 -6.34254,3.65586 -13.24913,6.23163 -19.87369,9.34741 -9.90695,3.50378 -19.620324,7.61249 -29.72085392,10.51135 C -51.864733,257.28187 -106.92419,258.54886 -161.14745,256.74189 c -15.11712,-0.50377 -30.20954,-1.58367 -45.31431,-2.37551 -10.65747,-0.82905 -64.68119,-5.06222 -77.17534,-5.92252 -9.87183,-0.67974 -19.74448,-1.38591 -29.63108,-1.79871 -12.55175,-0.52409 -28.02801,-1.09437 -40.73524,1.17546 -4.35335,0.77761 -8.47077,2.54389 -12.70615,3.81585 -10.2752,6.59977 -18.08292,8.32866 -22.38801,19.49926 -3.28584,8.52591 -2.2856,16.79043 0.15991,25.41712 3.71232,13.09539 8.99851,20.98461 15.55607,32.88041 3.77735,5.4307 7.1455,11.17023 11.33209,16.29211 10.17656,12.45 22.6436,23.89733 36.09525,32.69387 18.39819,12.03132 44.45428,24.11633 64.57532,31.95331 13.41245,5.22407 27.21387,9.38853 40.8208,14.08279 15.09298,3.94592 30.05661,8.42465 45.27893,11.83775 65.24703,14.62937 133.681897,21.10169 200.498401,17.61421 16.61964,-0.86746 33.14681,-3.02463 49.72021,-4.53697 38.544819,-7.63291 56.121519,-9.97495 92.999849,-21.49244 12.69315,-3.9642 25.28084,-8.36642 37.49324,-13.62832 21.11578,-9.09807 42.35905,-21.72645 60.30634,-36.10303 6.75,-5.40705 12.38803,-12.07193 18.58203,-18.1079 9.59147,-13.71843 16.49458,-19.09799 17.12127,-36.55822 0.54626,-15.21997 -6.16016,-27.90423 -15.14454,-39.64239 -15.17888,-19.83128 -25.85461,-25.09303 -46.46731,-40.1588 C 209.62539,226.61098 199.04513,219.40574 166.15483,206.0799 131.75523,192.14256 101.16567,183.52647 65.201671,173.82431 21.871121,162.13484 7.8943471,159.46524 -34.871373,149.89085 c -32.58114,-6.86699 -65.316687,-13.015 -98.212827,-18.17236 -6.19723,-0.97158 -12.41274,-1.82268 -18.61911,-2.73402 0,0 -6.3727,4.51077 -6.3727,4.51077 v 0 c 6.53735,0.67173 13.08392,1.25906 19.61204,2.01519 34.0752,3.94681 67.984107,9.25561 101.673647,15.71305 16.12468,3.37415 32.3197601,6.42779 48.37403,10.12245 65.361444,15.04199 130.894363,33.47169 190.386783,65.16162 11.4686,6.10902 22.33785,13.28211 33.50678,19.92318 8.81118,6.86385 18.19828,13.04634 26.43354,20.59151 16.04479,14.70028 33.30951,36.57704 32.47411,59.84148 -0.61248,17.05689 -7.01595,22.1488 -16.21864,35.7183 -13.95285,13.85874 -20.87475,22.36885 -37.85833,32.70919 -22.57634,13.74545 -44.81007,22.69149 -70.01179,30.77662 -14.6082,4.68657 -29.42871,8.74403 -44.36311,12.25506 -16.28936,3.82957 -32.829429,6.50112 -49.244149,9.75166 -16.6012,1.53953 -33.15489,3.72973 -49.80361,4.61862 -66.691814,3.56071 -134.839871,-2.81612 -199.856661,-17.9865 -15.04403,-3.51023 -29.80743,-8.12991 -44.71115,-12.19486 -13.36809,-4.84087 -26.94846,-9.13143 -40.10427,-14.52256 -21.34554,-8.7472 -43.58615,-19.78469 -62.62711,-33.04728 -7.11386,-4.95498 -13.75959,-10.59934 -20.05531,-16.55945 -13.2162,-12.51167 -16.15855,-18.35155 -26.09733,-32.85878 -2.95928,-5.57755 -6.31703,-10.9613 -8.87788,-16.73265 -5.56593,-12.54395 -10.604,-27.91743 -4.98118,-41.45669 1.57081,-3.78238 4.92144,-6.59619 6.72558,-10.28253 4.41544,-1.47955 8.69126,-3.47099 13.24637,-4.43865 13.22991,-2.8104 29.27728,-2.76574 42.46611,-2.57389 36.41965,0.5298 72.72526,3.99481 109.06377,6.09568 15.06,0.82891 30.1076,1.92672 45.18,2.48674 53.46526,1.98644 108.031087,1.41584 159.9921671,-12.97247 9.97005,-2.76077 19.5596139,-6.74661 29.3394239,-10.11991 10.3206,-5.21637 20.93831,-9.8824 30.96181,-15.64913 7.29121,-4.19476 14.21946,-9.03478 20.87783,-14.17517 15.79569,-12.19461 29.847039,-27.24513 38.571959,-45.38045 2.07628,-4.31566 3.22512,-9.01899 4.83768,-13.52848 1.49626,-10.14024 2.9737,-13.58483 0.87777,-23.59402 -2.25679,-10.77739 -9.32932,-21.09623 -17.27218,-28.490474 -3.33377,-3.10349 -7.178159,-5.60864 -10.767229,-8.41296 -13.51855,-8.38833 -16.04059,-10.27281 -30.87287,-18.00563 -6.64643,-3.46512 -13.39402,-6.73488 -20.15669,-9.96728 -23.86138,-11.40515 -48.1528639,-21.88652 -72.387074,-32.463471 -13.88011,-6.080437 -29.8139,-12.909941 -43.53751,-19.4875822 -15.27518,-7.32129 -30.867187,-15.12247 -43.750257,-26.3389798 -3.21521,-2.79929 -5.97956,-6.07776 -8.96935,-9.11664 -6.14181,-8.73427 -8.59162,-10.91999 -12.13354,-21.13653 -4.15892,-11.99626 -4.60057,-24.77183 -2.77277,-37.23542 0.64143,-4.37382 1.78926,-8.65827 2.6839,-12.987413 3.64077,-10.82341 4.6038,-15.08483 9.94533,-25.2892 8.6679,-16.55899 20.3918,-28.74496 35.732297,-39.27112 1.95724,-1.29235 3.80835,-2.76194 5.87171,-3.87705 11.51088,-6.22087 19.66134,-9.69271 32.12547,-14.02482 19.48744,-6.77318 39.60373,-11.58603 59.9282301,-15.04128 6.9485899,-1.03318 13.8815639,-2.17749 20.8457639,-3.09955 41.53276,-5.49892 83.540959,-7.91976 125.416769,-6.22092 9.56413,0.67458 19.14514,1.14187 28.69239,2.02373 9.96259,0.92024 19.9096,2.03745 29.82396,3.38133 28.93822,3.92255 57.71608,9.38596 85.40909,18.85052 7.60603,2.59949 14.96034,5.8843 22.4405,8.82645 6.36593,3.16572 12.8523,6.1 19.09779,9.49716 5.98228,3.254 11.83764,6.74991 17.55976,10.4423 13.29481,8.57892 26.14229,18.45852 36.17457,30.82 2.12244,2.6152 3.796,5.56474 5.69402,8.3471 1.75109,4.11255 4.04344,7.65549 3.53362,12.31743 -0.1518,1.38806 -2.84221,3.203723 -1.61293,3.866043 1.61586,0.87062 6.96473,-2.200183 5.14461,-1.963213 -5.41459,0.70496 -10.01437,5.321453 -16.01941,3.422323 -53.42945,2.46288 -106.7839,6.63604 -159.85101,13.41972 -14.57883,1.93885 -29.17703,3.73731 -43.73649,5.81656 -37.49172,5.35424 -55.5088,8.45011 -92.820899,15.14462 -24.22378,4.34622 -63.3394,11.61392 -87.8476839,16.77762 -12.00025,2.52836 -23.9256901,5.39965 -35.8885401,8.09947 -24.5915,6.31607 -35.40505,8.66796 -58.95369,16.24763 -20.260347,6.52126 -27.612757,9.45699 -46.974197,19.6331298 -4.33294,2.27734 -8.60932,4.73501 -12.50467,7.69928 -2.71729,2.06779 -4.79662,4.8610702 -7.19493,7.2916092 -0.13122,1.85909 -0.75746,3.749403 -0.39366,5.577266 0.84894,4.265446 4.68968,7.815705 7.75189,10.377612 10.46449,8.754816 23.02518,14.590576 34.74707,21.350536 18.190887,9.53955 23.499887,12.44734 42.675257,21.93882 34.9807,17.31484 70.5764001,33.355364 105.431254,50.926634 7.66222,4.0344 15.41673,7.89818 22.98666,12.10321 12.64302,7.02309 26.80721,15.49359 38.46396,24.22835 8.612359,6.4535 18.171939,14.89772 24.989279,23.39079 3.02439,3.76779 5.38313,8.02463 8.07469,12.03695 3.50161,9.42538 6.60819,14.05932 5.14209,24.41886 -1.46895,10.37968 -6.45117,16.61298 -13.63184,24.00297 -11.1171,11.44114 -16.50586,14.24509 -29.362749,23.0808 -23.85674,12.86168 -31.00767,17.78566 -57.34176,27.28447 -11.32798,4.08604 -22.9150139,7.45389 -34.5538139,10.54536 -23.2309001,6.17056 -51.8563001,11.74578 -75.6273801,15.14115 -11.61516,1.65905 -23.322557,2.59157 -34.983837,3.88734 -9.4382,0.42736 -18.86956,1.05071 -28.31459,1.28201 -16.562,0.40558 -33.11175,-0.51377 -49.65908,-0.97726 0,0 -9.02613,6.55788 -9.02613,6.55788 z" />
  </g>
</svg>
